<svg width="157" height="19" viewBox="0 0 157 19" fill="none" xmlns="http://www.w3.org/2000/svg">
<path d="M4.275 0.499999H7.7V13.3C7.7 13.9667 7.625 14.6 7.475 15.2C7.325 15.8 7.075 16.3333 6.725 16.8C6.39167 17.25 5.95833 17.6167 5.425 17.9C4.89167 18.1667 4.24167 18.3 3.475 18.3C2.99167 18.3 2.46667 18.25 1.9 18.15C1.33333 18.05 0.841667 17.9083 0.425 17.725L1.175 14.925C1.60833 15.1417 2.1 15.25 2.65 15.25C3.35 15.25 3.79167 14.9917 3.975 14.475C4.175 13.9583 4.275 13.275 4.275 12.425V0.499999ZM10.6996 6.225C11.3663 5.925 12.1579 5.69167 13.0746 5.525C13.9913 5.34167 14.9496 5.25 15.9496 5.25C16.8163 5.25 17.5413 5.35833 18.1246 5.575C18.7079 5.775 19.1663 6.06667 19.4996 6.45C19.8496 6.83333 20.0913 7.29167 20.2246 7.825C20.3746 8.35833 20.4496 8.95833 20.4496 9.625C20.4496 10.3583 20.4246 11.1 20.3746 11.85C20.3246 12.5833 20.2913 13.3083 20.2746 14.025C20.2746 14.7417 20.2996 15.4417 20.3496 16.125C20.3996 16.7917 20.5246 17.425 20.7246 18.025H18.0746L17.5496 16.3H17.4246C17.0913 16.8167 16.6246 17.2667 16.0246 17.65C15.4413 18.0167 14.6829 18.2 13.7496 18.2C13.1663 18.2 12.6413 18.1167 12.1746 17.95C11.7079 17.7667 11.3079 17.5167 10.9746 17.2C10.6413 16.8667 10.3829 16.4833 10.1996 16.05C10.0163 15.6 9.92461 15.1 9.92461 14.55C9.92461 13.7833 10.0913 13.1417 10.4246 12.625C10.7746 12.0917 11.2663 11.6667 11.8996 11.35C12.5496 11.0167 13.3163 10.7917 14.1996 10.675C15.0996 10.5417 16.0996 10.5 17.1996 10.55C17.3163 9.61667 17.2496 8.95 16.9996 8.55C16.7496 8.13333 16.1913 7.925 15.3246 7.925C14.6746 7.925 13.9829 7.99167 13.2496 8.125C12.5329 8.25833 11.9413 8.43333 11.4746 8.65L10.6996 6.225ZM14.8246 15.525C15.4746 15.525 15.9913 15.3833 16.3746 15.1C16.7579 14.8 17.0413 14.4833 17.2246 14.15V12.525C16.7079 12.475 16.2079 12.4667 15.7246 12.5C15.2579 12.5333 14.8413 12.6083 14.4746 12.725C14.1079 12.8417 13.8163 13.0083 13.5996 13.225C13.3829 13.4417 13.2746 13.7167 13.2746 14.05C13.2746 14.5167 13.4079 14.8833 13.6746 15.15C13.9579 15.4 14.3413 15.525 14.8246 15.525ZM30.277 18V11.2C30.277 10.05 30.1686 9.23333 29.952 8.75C29.7353 8.26667 29.2853 8.025 28.602 8.025C28.0353 8.025 27.577 8.18333 27.227 8.5C26.877 8.8 26.6103 9.19167 26.427 9.675V18H23.177V5.5H25.702L26.077 7.15H26.177C26.5603 6.61667 27.0436 6.15 27.627 5.75C28.227 5.35 28.9936 5.15 29.927 5.15C30.727 5.15 31.377 5.31667 31.877 5.65C32.3936 5.96667 32.7936 6.50833 33.077 7.275C33.4603 6.625 33.952 6.10833 34.552 5.725C35.152 5.34167 35.877 5.15 36.727 5.15C37.427 5.15 38.0186 5.23333 38.502 5.4C39.002 5.56667 39.402 5.85833 39.702 6.275C40.0186 6.675 40.252 7.21667 40.402 7.9C40.552 8.58333 40.627 9.45 40.627 10.5V18H37.377V10.975C37.377 9.99167 37.2686 9.25833 37.052 8.775C36.852 8.275 36.3936 8.025 35.677 8.025C35.0936 8.025 34.627 8.18333 34.277 8.5C33.9436 8.81667 33.6936 9.25 33.527 9.8V18H30.277ZM53.2941 16.925C52.7941 17.325 52.1108 17.6667 51.2441 17.95C50.3941 18.2167 49.4858 18.35 48.5191 18.35C46.5025 18.35 45.0275 17.7667 44.0941 16.6C43.1608 15.4167 42.6941 13.8 42.6941 11.75C42.6941 9.55 43.2191 7.9 44.2691 6.8C45.3191 5.7 46.7941 5.15 48.6941 5.15C49.3275 5.15 49.9441 5.23333 50.5441 5.4C51.1441 5.56667 51.6775 5.84167 52.1441 6.225C52.6108 6.60833 52.9858 7.125 53.2691 7.775C53.5525 8.425 53.6941 9.23333 53.6941 10.2C53.6941 10.55 53.6691 10.925 53.6191 11.325C53.5858 11.725 53.5275 12.1417 53.4441 12.575H45.9441C45.9941 13.625 46.2608 14.4167 46.7441 14.95C47.2441 15.4833 48.0441 15.75 49.1441 15.75C49.8275 15.75 50.4358 15.65 50.9691 15.45C51.5191 15.2333 51.9358 15.0167 52.2191 14.8L53.2941 16.925ZM48.6441 7.75C47.7941 7.75 47.1608 8.00833 46.7441 8.525C46.3441 9.025 46.1025 9.7 46.0191 10.55H50.6691C50.7358 9.65 50.5941 8.95833 50.2441 8.475C49.9108 7.99167 49.3775 7.75 48.6441 7.75ZM61.1645 14.55C61.1645 14.2167 61.0228 13.95 60.7395 13.75C60.4561 13.55 60.1061 13.3667 59.6895 13.2C59.2728 13.0333 58.8145 12.8667 58.3145 12.7C57.8145 12.5167 57.3561 12.275 56.9395 11.975C56.5228 11.6583 56.1728 11.2667 55.8895 10.8C55.6061 10.3167 55.4645 9.7 55.4645 8.95C55.4645 7.71667 55.8311 6.775 56.5645 6.125C57.2978 5.475 58.3561 5.15 59.7395 5.15C60.6895 5.15 61.5478 5.25 62.3145 5.45C63.0811 5.65 63.6811 5.875 64.1145 6.125L63.3895 8.475C63.0061 8.325 62.5228 8.16667 61.9395 8C61.3561 7.83333 60.7645 7.75 60.1645 7.75C59.1978 7.75 58.7145 8.125 58.7145 8.875C58.7145 9.175 58.8561 9.41667 59.1395 9.6C59.4228 9.78333 59.7728 9.95833 60.1895 10.125C60.6061 10.275 61.0645 10.4417 61.5645 10.625C62.0645 10.8083 62.5228 11.05 62.9395 11.35C63.3561 11.6333 63.7061 12.0083 63.9895 12.475C64.2728 12.9417 64.4145 13.5417 64.4145 14.275C64.4145 15.5417 64.0061 16.5417 63.1895 17.275C62.3895 17.9917 61.1811 18.35 59.5645 18.35C58.6811 18.35 57.8478 18.2333 57.0645 18C56.2978 17.7833 55.6728 17.525 55.1895 17.225L56.0895 14.8C56.4728 15.0167 56.9811 15.2333 57.6145 15.45C58.2478 15.65 58.8978 15.75 59.5645 15.75C60.0478 15.75 60.4311 15.6583 60.7145 15.475C61.0145 15.2917 61.1645 14.9833 61.1645 14.55ZM66.1613 16.35C66.1613 15.7667 66.3447 15.3083 66.7113 14.975C67.078 14.625 67.5613 14.45 68.1613 14.45C68.7947 14.45 69.2947 14.625 69.6613 14.975C70.028 15.3083 70.2113 15.7667 70.2113 16.35C70.2113 16.9333 70.028 17.4 69.6613 17.75C69.2947 18.1 68.7947 18.275 68.1613 18.275C67.5613 18.275 67.078 18.1 66.7113 17.75C66.3447 17.4 66.1613 16.9333 66.1613 16.35ZM86.3387 8.925L86.7137 5.45H86.5637L85.4887 8.25L81.7637 14.775H80.6637L76.7387 8.225L75.6387 5.45H75.5137L76.0137 8.9V18H72.7637V0.499999H75.8887L80.5637 8.5L81.3887 10.5H81.4887L82.2387 8.45L86.6637 0.499999H89.7637V18H86.3387V8.925ZM92.6088 6.225C93.2755 5.925 94.0671 5.69167 94.9838 5.525C95.9005 5.34167 96.8588 5.25 97.8588 5.25C98.7255 5.25 99.4505 5.35833 100.034 5.575C100.617 5.775 101.075 6.06667 101.409 6.45C101.759 6.83333 102 7.29167 102.134 7.825C102.284 8.35833 102.359 8.95833 102.359 9.625C102.359 10.3583 102.334 11.1 102.284 11.85C102.234 12.5833 102.2 13.3083 102.184 14.025C102.184 14.7417 102.209 15.4417 102.259 16.125C102.309 16.7917 102.434 17.425 102.634 18.025H99.9838L99.4588 16.3H99.3338C99.0005 16.8167 98.5338 17.2667 97.9338 17.65C97.3505 18.0167 96.5921 18.2 95.6588 18.2C95.0755 18.2 94.5505 18.1167 94.0838 17.95C93.6171 17.7667 93.2171 17.5167 92.8838 17.2C92.5505 16.8667 92.2921 16.4833 92.1088 16.05C91.9255 15.6 91.8338 15.1 91.8338 14.55C91.8338 13.7833 92.0005 13.1417 92.3338 12.625C92.6838 12.0917 93.1755 11.6667 93.8088 11.35C94.4588 11.0167 95.2255 10.7917 96.1088 10.675C97.0088 10.5417 98.0088 10.5 99.1088 10.55C99.2255 9.61667 99.1588 8.95 98.9088 8.55C98.6588 8.13333 98.1005 7.925 97.2338 7.925C96.5838 7.925 95.8921 7.99167 95.1588 8.125C94.4421 8.25833 93.8505 8.43333 93.3838 8.65L92.6088 6.225ZM96.7338 15.525C97.3838 15.525 97.9005 15.3833 98.2838 15.1C98.6671 14.8 98.9505 14.4833 99.1338 14.15V12.525C98.6171 12.475 98.1171 12.4667 97.6338 12.5C97.1671 12.5333 96.7505 12.6083 96.3838 12.725C96.0171 12.8417 95.7255 13.0083 95.5088 13.225C95.2921 13.4417 95.1838 13.7167 95.1838 14.05C95.1838 14.5167 95.3171 14.8833 95.5838 15.15C95.8671 15.4 96.2505 15.525 96.7338 15.525ZM103.786 5.5H105.511V3.15L108.761 2.225V5.5H111.811V8.25H108.761V13.05C108.761 13.9167 108.844 14.5417 109.011 14.925C109.194 15.2917 109.528 15.475 110.011 15.475C110.344 15.475 110.628 15.4417 110.861 15.375C111.111 15.3083 111.386 15.2083 111.686 15.075L112.261 17.575C111.811 17.7917 111.286 17.975 110.686 18.125C110.086 18.275 109.478 18.35 108.861 18.35C107.711 18.35 106.861 18.0583 106.311 17.475C105.778 16.875 105.511 15.9 105.511 14.55V8.25H103.786V5.5ZM121.452 18V10.9C121.452 9.88333 121.31 9.15 121.027 8.7C120.744 8.25 120.227 8.025 119.477 8.025C118.927 8.025 118.419 8.21667 117.952 8.6C117.502 8.96667 117.202 9.44167 117.052 10.025V18H113.802V0.499999H117.052V6.9H117.152C117.552 6.36667 118.044 5.94167 118.627 5.625C119.21 5.30833 119.952 5.15 120.852 5.15C121.485 5.15 122.044 5.23333 122.527 5.4C123.01 5.56667 123.41 5.84167 123.727 6.225C124.06 6.60833 124.302 7.13333 124.452 7.8C124.619 8.45 124.702 9.25833 124.702 10.225V18H121.452ZM137.425 16.925C136.925 17.325 136.242 17.6667 135.375 17.95C134.525 18.2167 133.617 18.35 132.65 18.35C130.633 18.35 129.158 17.7667 128.225 16.6C127.292 15.4167 126.825 13.8 126.825 11.75C126.825 9.55 127.35 7.9 128.4 6.8C129.45 5.7 130.925 5.15 132.825 5.15C133.458 5.15 134.075 5.23333 134.675 5.4C135.275 5.56667 135.808 5.84167 136.275 6.225C136.742 6.60833 137.117 7.125 137.4 7.775C137.683 8.425 137.825 9.23333 137.825 10.2C137.825 10.55 137.8 10.925 137.75 11.325C137.717 11.725 137.658 12.1417 137.575 12.575H130.075C130.125 13.625 130.392 14.4167 130.875 14.95C131.375 15.4833 132.175 15.75 133.275 15.75C133.958 15.75 134.567 15.65 135.1 15.45C135.65 15.2333 136.067 15.0167 136.35 14.8L137.425 16.925ZM132.775 7.75C131.925 7.75 131.292 8.00833 130.875 8.525C130.475 9.025 130.233 9.7 130.15 10.55H134.8C134.867 9.65 134.725 8.95833 134.375 8.475C134.042 7.99167 133.508 7.75 132.775 7.75ZM149.048 5.5L151.323 11.9L151.773 13.975H151.873L152.223 11.875L153.823 5.5H156.798L152.948 18.125H150.548L148.023 11.125L147.698 9.55H147.573L147.273 11.15L144.873 18.125H142.398L138.373 5.5H141.898L143.723 11.775L144.023 14H144.148L144.573 11.75L146.648 5.5H149.048Z" fill="white"/>
</svg>
